<svg width="130px" height="40px" viewBox="0 0 130 40" version="1.1" xmlns="http://www.w3.org/2000/svg" xmlns:xlink="http://www.w3.org/1999/xlink">
    <g id="Page-1" stroke="none" stroke-width="1" fill="none" fill-rule="evenodd">
        <g id="Desktop-HD-Copy-88" transform="translate(-75.000000, -26.000000)" fill="#FFFFFF" fill-rule="nonzero">
            <g id="Group-4">
                <g id="Logo_of_the_Church_of_Jesus_Christ_of_Latter-day_Saints" transform="translate(75.000000, 26.000000)">
                    <path d="M28.7043137,2.11843137 C28.7043137,2.13490196 28.467451,2.13490196 28.467451,2.09882353 C28.467451,1.84627451 28.4133333,1.59215686 28.2870588,1.44627451 C28.0878431,1.26666667 27.8156863,1.12 26.7286275,1.12 C26.5105882,1.12 26.3843137,1.13882353 26.2941176,1.13882353 C26.2572549,1.24705882 26.2384314,1.62745098 26.2384314,2.24392157 L26.2384314,4.56392157 C26.2384314,6.34117647 26.3278431,6.55921569 26.4564706,6.61254902 C26.5843137,6.68470588 26.8368627,6.73803922 27.2352941,6.77568627 C27.2721569,6.79294118 27.2721569,7.01098039 27.2352941,7.01098039 C26.7647059,7.01098039 24.8415686,7.01098039 24.3701961,7.01098039 C24.3333333,7.01098039 24.3333333,6.79372549 24.3701961,6.77568627 C24.7701961,6.73803922 25.0227451,6.68470588 25.1513725,6.61254902 C25.2784314,6.55921569 25.3482353,6.34039216 25.3482353,4.56392157 L25.3482353,2.24392157 C25.3482353,1.62745098 25.3482353,1.24705882 25.3129412,1.13882353 C25.2219608,1.13882353 25.0431373,1.12 24.8235294,1.12 C23.7898039,1.12 23.4996078,1.22980392 23.2658824,1.44627451 C23.1027451,1.59215686 23.0117647,1.88156863 22.9560784,2.11843137 C22.9560784,2.1545098 22.7223529,2.11843137 22.7223529,2.08078431 C22.7764706,1.59058824 22.8305882,1.01176471 22.8666667,0.665882353 C22.8666667,0.648627451 22.8839216,0.629803922 22.92,0.629803922 C23.2839216,0.684705882 24.0635294,0.738823529 25.8023529,0.738823529 C28.1968627,0.738823529 28.5592157,0.685490196 28.7388235,0.611764706 C28.7764706,0.611764706 28.7937255,0.629803922 28.7937255,0.648627451 C28.7921569,1.02980392 28.7756863,1.59058824 28.7043137,2.11843137 Z M34.1027451,7.01176471 C34.067451,7.01176471 34.067451,6.7945098 34.1027451,6.77568627 C34.5027451,6.73882353 34.6666667,6.68470588 34.7921569,6.61333333 C34.9184314,6.56 35.0086275,6.34039216 35.0086275,4.56470588 L35.0086275,3.98431373 L31.3647059,3.98431373 L31.3647059,4.56470588 C31.3647059,6.34117647 31.454902,6.56 31.5803922,6.61333333 C31.7105882,6.68470588 31.8713725,6.73882353 32.2713725,6.77568627 C32.3066667,6.79372549 32.3066667,7.01176471 32.2878431,7.01176471 C31.7992157,7.01176471 30.0431373,7.01176471 29.5694118,7.01176471 C29.5513725,7.01176471 29.5333333,6.7945098 29.5882353,6.77568627 C29.9858824,6.73882353 30.1482353,6.68470588 30.2752941,6.61333333 C30.4015686,6.56 30.4760784,6.34039216 30.4760784,4.56470588 L30.4760784,3.14980392 C30.4760784,1.37411765 30.4007843,1.15764706 30.2752941,1.10196078 C30.147451,1.02980392 29.9858824,0.975686275 29.5882353,0.921568627 C29.5333333,0.921568627 29.5505882,0.705098039 29.5694118,0.705098039 C30.0431373,0.705098039 31.7992157,0.705098039 32.2878431,0.705098039 C32.3058824,0.705098039 32.3058824,0.921568627 32.2713725,0.921568627 C31.8713725,0.975686275 31.7105882,1.03058824 31.5803922,1.10196078 C31.4541176,1.15764706 31.3647059,1.37490196 31.3647059,3.14980392 L31.3647059,3.58588235 L35.0086275,3.58588235 L35.0086275,3.14980392 C35.0086275,1.37411765 34.9184314,1.15764706 34.7921569,1.10196078 C34.6658824,1.02980392 34.5019608,0.975686275 34.1027451,0.921568627 C34.067451,0.921568627 34.067451,0.705098039 34.1027451,0.705098039 C34.5733333,0.705098039 36.3333333,0.705098039 36.8039216,0.705098039 C36.8392157,0.705098039 36.8392157,0.921568627 36.7866667,0.921568627 C36.4047059,0.975686275 36.225098,1.03058824 36.0964706,1.10196078 C35.9882353,1.15764706 35.8980392,1.37490196 35.8980392,3.14980392 L35.8980392,4.56470588 C35.8980392,6.34117647 35.987451,6.56 36.0964706,6.61333333 C36.225098,6.68470588 36.4047059,6.73882353 36.7866667,6.77568627 C36.8392157,6.79372549 36.8392157,7.01176471 36.8039216,7.01176471 C36.3333333,7.01176471 34.5741176,7.01176471 34.1027451,7.01176471 Z M42.1168627,6.84862745 C42.0423529,6.95686275 41.9905882,7.02901961 41.7341176,7.02901961 C41.1192157,7.02901961 40.3937255,6.99215686 39.5592157,6.99215686 C38.9058824,6.99215686 38.5066667,6.99215686 37.8007843,7.01019608 C37.7647059,7.01019608 37.7647059,6.79294118 37.8007843,6.77490196 C38.1984314,6.7372549 38.3811765,6.68392157 38.4886275,6.61176471 C38.6156863,6.55843137 38.707451,6.33960784 38.707451,4.56313725 L38.707451,3.14901961 C38.707451,1.37333333 38.614902,1.15686275 38.4886275,1.10117647 C38.3803922,1.02901961 38.1984314,0.974901961 37.8007843,0.920784314 C37.7647059,0.920784314 37.7647059,0.704313725 37.8007843,0.704313725 C38.5803922,0.721568627 39.812549,0.721568627 40.465098,0.721568627 C41.2996078,0.721568627 41.7701961,0.704313725 42.0619608,0.685490196 C42.1176471,0.666666667 42.1333333,0.702745098 42.1333333,0.721568627 C42.0964706,1.04784314 42.0792157,1.51921569 42.0243137,2.02666667 C42.0047059,2.08078431 41.7701961,2.0627451 41.7701961,2.00862745 C41.7701961,1.75607843 41.7168627,1.51921569 41.5709804,1.35607843 C41.4086275,1.19372549 41.1192157,1.10196078 40.4133333,1.10196078 C40.0141176,1.10196078 39.7427451,1.11921569 39.6321569,1.11921569 C39.5968627,1.22901961 39.5968627,1.55529412 39.5968627,2.17176471 L39.5968627,3.53098039 L40.3403922,3.53098039 C41.3011765,3.53098039 41.427451,3.31294118 41.4823529,2.97019608 C41.4988235,2.93098039 41.734902,2.93098039 41.734902,2.97019608 C41.7184314,3.24078431 41.6823529,4.40156863 41.6823529,4.65411765 C41.6823529,4.69098039 41.427451,4.69098039 41.427451,4.65411765 C41.427451,4.4745098 41.3913725,4.21882353 41.2807843,4.12941176 C41.1905882,4.05568627 41.0462745,3.94823529 40.3192157,3.94823529 L39.5952941,3.94823529 L39.5952941,4.56392157 C39.5952941,5.7427451 39.6870588,6.28470588 39.812549,6.43137255 C39.9388235,6.53960784 40.0658824,6.61254902 40.6635294,6.61254902 C41.2792157,6.61254902 41.6243137,6.46666667 41.8070588,6.26823529 C41.9513725,6.12313725 42.0603922,5.92313725 42.132549,5.59843137 C42.1498039,5.5427451 42.332549,5.59843137 42.3137255,5.63294118 C42.2776471,6.14196078 42.187451,6.70352941 42.1168627,6.84862745 Z M52.2980392,6.65019608 C52.172549,6.83215686 51.5035294,7.1027451 50.305098,7.1027451 C48.2376471,7.1027451 46.7160784,5.68862745 46.7160784,3.93019608 C46.7160784,2.2627451 48.0564706,0.61254902 50.2854902,0.61254902 C51.4290196,0.61254902 52.0078431,0.975686275 52.372549,0.902745098 C52.4070588,0.885490196 52.4243137,0.92 52.4243137,0.939607843 C52.4431373,1.28313725 52.4619608,1.80862745 52.4619608,2.33490196 C52.4619608,2.38901961 52.2078431,2.37019608 52.2078431,2.31686275 C52.1890196,2.06352941 52.027451,1.7372549 51.8266667,1.53803922 C51.465098,1.1945098 50.867451,0.975686275 50.1772549,0.975686275 C48.3654902,0.975686275 47.7113725,2.2627451 47.7113725,3.65803922 C47.7113725,5.23764706 48.7270588,6.70431373 50.3247059,6.70431373 C51.0643137,6.70431373 51.5576471,6.57803922 51.9011765,6.17882353 C52.1003922,5.92392157 52.2266667,5.6172549 52.3176471,5.32705882 C52.3364706,5.27215686 52.5545098,5.32705882 52.5545098,5.36313725 C52.5168627,5.86980392 52.3905882,6.52156863 52.2980392,6.65019608 Z M58.3686275,7.01176471 C58.3356863,7.01176471 58.3356863,6.7945098 58.3686275,6.77568627 C58.7701961,6.73882353 58.934902,6.68470588 59.0619608,6.61333333 C59.1882353,6.56 59.2784314,6.34039216 59.2784314,4.56470588 L59.2784314,3.98431373 L55.6345098,3.98431373 L55.6345098,4.56470588 C55.6345098,6.34117647 55.7247059,6.56 55.8509804,6.61333333 C55.9788235,6.68470588 56.1411765,6.73882353 56.5411765,6.77568627 C56.5764706,6.79372549 56.5764706,7.01176471 56.5576471,7.01176471 C56.0698039,7.01176471 54.3105882,7.01176471 53.84,7.01176471 C53.8203922,7.01176471 53.8039216,6.7945098 53.8580392,6.77568627 C54.2564706,6.73882353 54.4211765,6.68470588 54.547451,6.61333333 C54.6721569,6.56 54.7458824,6.34039216 54.7458824,4.56470588 L54.7458824,3.14980392 C54.7458824,1.37411765 54.6721569,1.15764706 54.547451,1.10196078 C54.4211765,1.02980392 54.2564706,0.975686275 53.8580392,0.921568627 C53.8039216,0.921568627 53.8203922,0.705098039 53.84,0.705098039 C54.3105882,0.705098039 56.0705882,0.705098039 56.5576471,0.705098039 C56.5764706,0.705098039 56.5764706,0.921568627 56.5411765,0.921568627 C56.1411765,0.975686275 55.9788235,1.03058824 55.8509804,1.10196078 C55.7239216,1.15764706 55.6345098,1.37490196 55.6345098,3.14980392 L55.6345098,3.58588235 L59.2784314,3.58588235 L59.2784314,3.14980392 C59.2784314,1.37411765 59.1882353,1.15764706 59.0619608,1.10196078 C58.934902,1.02980392 58.7701961,0.975686275 58.3686275,0.921568627 C58.3356863,0.921568627 58.3356863,0.705098039 58.3686275,0.705098039 C58.8423529,0.705098039 60.6007843,0.705098039 61.0705882,0.705098039 C61.1082353,0.705098039 61.1082353,0.921568627 61.054902,0.921568627 C60.6729412,0.975686275 60.4909804,1.03058824 60.3647059,1.10196078 C60.2564706,1.15764706 60.1662745,1.37490196 60.1662745,3.14980392 L60.1662745,4.56470588 C60.1662745,6.34117647 60.2564706,6.56 60.3647059,6.61333333 C60.4901961,6.68470588 60.6729412,6.73882353 61.054902,6.77568627 C61.1082353,6.79372549 61.1082353,7.01176471 61.0705882,7.01176471 C60.6007843,7.01176471 58.8423529,7.01176471 58.3686275,7.01176471 Z M68.1788235,1.12 C68.0870588,1.19372549 67.9984314,1.37490196 67.9984314,3.15058824 L67.9984314,4.78196078 C67.9984314,5.9427451 67.0196078,7.1027451 65.4392157,7.1027451 C63.8807843,7.1027451 62.7937255,6.07058824 62.7937255,4.80078431 L62.7937255,3.15058824 C62.7937255,1.37490196 62.7043137,1.15843137 62.5772549,1.1027451 C62.4509804,1.03058824 62.2847059,0.976470588 61.8870588,0.922352941 C61.8494118,0.922352941 61.8494118,0.705882353 61.8870588,0.705882353 C62.3584314,0.705882353 64.1733333,0.705882353 64.6447059,0.705882353 C64.6611765,0.705882353 64.68,0.922352941 64.6258824,0.922352941 C64.2447059,0.976470588 64.027451,1.03137255 63.8996078,1.1027451 C63.772549,1.15843137 63.6839216,1.37568627 63.6839216,3.15058824 L63.6839216,4.54666667 C63.6839216,5.76 64.425098,6.53960784 65.6752941,6.53960784 C66.9121569,6.53960784 67.4894118,5.7427451 67.4894118,4.65490196 L67.4894118,3.15058824 C67.4894118,1.37490196 67.3984314,1.19372549 67.3082353,1.12 C67.2,1.02980392 66.9623529,0.974901961 66.5639216,0.920784314 C66.5270588,0.920784314 66.5482353,0.704313725 66.5639216,0.704313725 C67.0541176,0.704313725 68.3960784,0.704313725 68.8690196,0.704313725 C68.9011765,0.704313725 68.9231373,0.920784314 68.8690196,0.920784314 C68.4682353,0.974901961 68.2862745,1.02980392 68.1788235,1.12 Z M75.865098,6.99372549 C75.2486275,6.99372549 74.7396078,6.92313725 74.3584314,6.65019608 C73.8329412,6.32470588 73.2901961,5.68862745 72.4917647,4.3654902 C72.0031373,4.38352941 71.8376471,4.3654902 71.4596078,4.34823529 L71.4596078,4.5654902 C71.4596078,6.34196078 71.5482353,6.56078431 71.6752941,6.61411765 C71.8023529,6.6854902 72.1113725,6.73960784 72.5458824,6.77647059 C72.585098,6.7945098 72.585098,7.01254902 72.5615686,7.01254902 C72.0941176,7.01254902 70.1333333,7.01254902 69.6635294,7.01254902 C69.6282353,7.01254902 69.6282353,6.79529412 69.6823529,6.77647059 C70.0635294,6.73960784 70.2415686,6.6854902 70.3717647,6.61411765 C70.48,6.56078431 70.5694118,6.34117647 70.5694118,4.5654902 L70.5694118,3.15058824 C70.5694118,1.37490196 70.48,1.15843137 70.3717647,1.1027451 C70.2423529,1.03058824 70.0635294,0.976470588 69.6823529,0.922352941 C69.6282353,0.922352941 69.6282353,0.705882353 69.6635294,0.705882353 C70.1145098,0.705882353 70.6423529,0.723137255 71.0235294,0.723137255 C71.3858824,0.723137255 71.787451,0.705882353 72.2376471,0.705882353 C73.7419608,0.705882353 74.5976471,1.50352941 74.5976471,2.30117647 C74.5976471,3.07921569 74.014902,3.7145098 73.3098039,4.13176471 C74.6509804,6.07137255 75.372549,6.72313725 76.1537255,6.72313725 C76.2462745,6.72313725 76.3733333,6.72313725 76.4423529,6.72313725 C76.4776471,6.70509804 76.5160784,6.94196078 76.4964706,6.94196078 C76.2807843,6.97568627 76.0996078,6.99372549 75.865098,6.99372549 Z M72.2227451,1.06666667 C71.8760784,1.06666667 71.6580392,1.11921569 71.6203922,1.19294118 C71.547451,1.26509804 71.4588235,1.8627451 71.4588235,3.14980392 C71.4588235,3.73019608 71.4933333,3.80235294 71.547451,3.8572549 C71.6580392,3.94823529 71.8564706,4.02039216 72.3301961,4.02039216 C73.0698039,4.02039216 73.5788235,3.36784314 73.5788235,2.62431373 C73.5788235,1.75529412 73.1819608,1.06666667 72.2227451,1.06666667 Z M81.8423529,6.65019608 C81.72,6.83215686 81.0447059,7.1027451 79.8501961,7.1027451 C77.7843137,7.1027451 76.2619608,5.68862745 76.2619608,3.93019608 C76.2619608,2.2627451 77.6039216,0.61254902 79.8352941,0.61254902 C80.9772549,0.61254902 81.5552941,0.975686275 81.9168627,0.902745098 C81.9545098,0.885490196 81.9701961,0.92 81.9701961,0.939607843 C81.9890196,1.28313725 82.0054902,1.80862745 82.0054902,2.33490196 C82.0054902,2.38901961 81.7537255,2.37019608 81.7537255,2.31686275 C81.7364706,2.06352941 81.5741176,1.7372549 81.372549,1.53803922 C81.0101961,1.1945098 80.412549,0.975686275 79.7231373,0.975686275 C77.9113725,0.975686275 77.2556863,2.2627451 77.2556863,3.65803922 C77.2556863,5.23764706 78.2737255,6.70431373 79.8698039,6.70431373 C80.612549,6.70431373 81.0988235,6.57803922 81.4462745,6.17882353 C81.6462745,5.92392157 81.7741176,5.6172549 81.8627451,5.32705882 C81.8815686,5.27215686 82.1011765,5.32705882 82.1011765,5.36313725 C82.0596078,5.86980392 81.9356863,6.52156863 81.8423529,6.65019608 Z M87.8439216,7.01176471 C87.8078431,7.01176471 87.8078431,6.7945098 87.8439216,6.77568627 C88.2439216,6.73882353 88.4062745,6.68470588 88.5294118,6.61333333 C88.6564706,6.56 88.7505882,6.34039216 88.7505882,4.56470588 L88.7505882,3.98431373 L85.1066667,3.98431373 L85.1066667,4.56470588 C85.1066667,6.34117647 85.1952941,6.56 85.3215686,6.61333333 C85.4486275,6.68470588 85.6109804,6.73882353 86.012549,6.77568627 C86.0470588,6.79372549 86.0470588,7.01176471 86.0313725,7.01176471 C85.5411765,7.01176471 83.7803922,7.01176471 83.3090196,7.01176471 C83.2909804,7.01176471 83.2713725,6.7945098 83.3278431,6.77568627 C83.7254902,6.73882353 83.8878431,6.68470588 84.0141176,6.61333333 C84.1419608,6.56 84.2156863,6.34039216 84.2156863,4.56470588 L84.2156863,3.14980392 C84.2156863,1.37411765 84.1419608,1.15764706 84.0141176,1.10196078 C83.8886275,1.02980392 83.7254902,0.975686275 83.3278431,0.921568627 C83.2713725,0.921568627 83.2901961,0.705098039 83.3090196,0.705098039 C83.7803922,0.705098039 85.5411765,0.705098039 86.0313725,0.705098039 C86.0454902,0.705098039 86.0454902,0.921568627 86.012549,0.921568627 C85.6109804,0.975686275 85.4501961,1.03058824 85.3215686,1.10196078 C85.1952941,1.15764706 85.1066667,1.37490196 85.1066667,3.14980392 L85.1066667,3.58588235 L88.7505882,3.58588235 L88.7505882,3.14980392 C88.7505882,1.37411765 88.6564706,1.15764706 88.5294118,1.10196078 C88.4062745,1.02980392 88.2454902,0.975686275 87.8439216,0.921568627 C87.8078431,0.921568627 87.8078431,0.705098039 87.8439216,0.705098039 C88.3137255,0.705098039 90.0721569,0.705098039 90.5411765,0.705098039 C90.5803922,0.705098039 90.5803922,0.921568627 90.5254902,0.921568627 C90.145098,0.975686275 89.9631373,1.03058824 89.8345098,1.10196078 C89.7278431,1.15764706 89.6360784,1.37490196 89.6360784,3.14980392 L89.6360784,4.56470588 C89.6360784,6.34117647 89.7278431,6.56 89.8345098,6.61333333 C89.9623529,6.68470588 90.145098,6.73882353 90.5254902,6.77568627 C90.5796078,6.79372549 90.5796078,7.01176471 90.5411765,7.01176471 C90.0721569,7.01176471 88.3137255,7.01176471 87.8439216,7.01176471 Z M97.7380392,7.1027451 C95.814902,7.1027451 94.3811765,5.68862745 94.3811765,3.93019608 C94.3811765,2.2627451 95.814902,0.61254902 97.865098,0.61254902 C99.7835294,0.61254902 101.218039,2.02745098 101.218039,3.78588235 C101.218824,5.45254902 99.7843137,7.1027451 97.7380392,7.1027451 Z M97.665098,1.01254902 C95.8886275,1.01254902 95.3788235,2.46196078 95.3788235,3.6572549 C95.3788235,5.23686275 96.3231373,6.70352941 97.934902,6.70352941 C99.7129412,6.70352941 100.221176,5.25333333 100.221176,4.0572549 C100.219608,2.47921569 99.2792157,1.01254902 97.665098,1.01254902 Z M106.599216,2.00862745 C106.599216,2.04470588 106.345882,2.04470588 106.345882,1.97176471 C106.345882,1.7372549 106.291765,1.51921569 106.145098,1.37411765 C105.982745,1.19372549 105.621176,1.04784314 104.915294,1.04784314 C104.51451,1.04784314 104.155294,1.06666667 104.044706,1.08392157 C104.028235,1.17568627 104.009412,1.55607843 104.009412,2.17254902 L104.009412,3.60392157 L104.713725,3.60392157 C105.67451,3.60392157 105.801569,3.49490196 105.855686,3.15058824 C105.87451,3.11529412 106.109804,3.13411765 106.109804,3.15058824 C106.094118,3.42352941 106.055686,4.40313725 106.055686,4.6745098 C106.055686,4.69098039 105.801569,4.69098039 105.801569,4.65568627 C105.801569,4.47607843 105.767059,4.27529412 105.657255,4.18352941 C105.569412,4.09333333 105.422745,4.03764706 104.697255,4.03764706 L104.007059,4.03764706 L104.007059,4.56470588 C104.007059,6.34117647 104.096471,6.56 104.222745,6.61333333 C104.350588,6.68470588 104.658824,6.73882353 105.094118,6.77568627 C105.131765,6.79372549 105.131765,7.01176471 105.112941,7.01176471 C104.619608,7.01176471 102.681569,7.01176471 102.21098,7.01176471 C102.17098,7.01176471 102.17098,6.7945098 102.22902,6.77568627 C102.607059,6.73882353 102.788235,6.68470588 102.92,6.61333333 C103.025098,6.56 103.116078,6.34039216 103.116078,4.56470588 L103.116078,3.14980392 C103.116078,1.37411765 103.025098,1.10196078 102.92,1.04784314 C102.789804,0.974901961 102.608627,0.920784314 102.22902,0.884705882 C102.17098,0.86745098 102.17098,0.704313725 102.21098,0.704313725 C102.992157,0.721568627 104.28,0.721568627 104.912157,0.721568627 C105.763922,0.721568627 106.341961,0.704313725 106.654118,0.685490196 C106.686275,0.666666667 106.708235,0.702745098 106.708235,0.721568627 C106.688627,1.04784314 106.656471,1.48235294 106.599216,2.00862745 Z M6.07921569,14.1898039 C5.32627451,14.2666667 4.84705882,14.3239216 4.61490196,14.4596078 C4.36627451,14.5945098 4.1545098,15.1137255 4.21019608,18.6141176 L4.26901961,23.8266667 C4.30745098,27.1937255 3.51921569,28.6737255 0.17254902,30.2329412 C0.11372549,30.2721569 -0.057254902,30.0219608 0.0188235294,29.9631373 C1.71137255,28.7341176 2.59607843,27.9043137 2.59607843,23.8266667 L2.59607843,18.6141176 C2.59607843,15.1137255 2.42196078,14.5945098 2.19215686,14.4596078 C1.96078431,14.3239216 1.46039216,14.2666667 0.708235294,14.1898039 C0.631372549,14.1709804 0.631372549,13.7858824 0.690980392,13.7858824 C1.5945098,13.7858824 5.19058824,13.7858824 6.0972549,13.7858824 C6.15529412,13.7858824 6.17490196,14.1701961 6.07921569,14.1898039 Z M16.4823529,26.0384314 C16.385098,26.1529412 15.8078431,26.2698039 15.0015686,26.2698039 C13.8462745,26.2698039 13.2501961,26.2109804 11.6541176,26.2109804 C10.4039216,26.2109804 9.48078431,26.2298039 8.1145098,26.2501961 C8.05647059,26.2501961 8.05647059,25.867451 8.13333333,25.8486275 C8.88392157,25.7701961 9.3254902,25.7113725 9.55764706,25.5772549 C9.78666667,25.4415686 9.96,24.9223529 9.96,21.4227451 L9.96,18.6133333 C9.96,15.1129412 9.78666667,14.5937255 9.55764706,14.4588235 C9.3254902,14.3231373 8.88392157,14.2658824 8.13333333,14.1890196 C8.05647059,14.1701961 8.05647059,13.785098 8.1145098,13.785098 C9.61490196,13.8031373 12.1341176,13.8235294 13.3843137,13.8235294 C15.0015686,13.8235294 15.6352941,13.8047059 16.2133333,13.7270588 C16.3082353,13.7270588 16.3278431,13.7662745 16.3278431,13.8047059 C16.2894118,14.4768627 16.2313725,15.4415686 16.1168627,16.4784314 C16.0956863,16.5568627 15.692549,16.534902 15.692549,16.4211765 C15.692549,15.9592157 15.5403922,15.4407843 15.2509804,15.1129412 C14.8462745,14.7082353 14.3843137,14.5341176 13.2886275,14.5341176 C12.5372549,14.5341176 11.8266667,14.5341176 11.654902,14.5756863 C11.5960784,14.7670588 11.5780392,15.4792157 11.5780392,16.6894118 L11.5780392,19.4196078 L13.1552941,19.4196078 C14.9811765,19.4196078 15.0196078,18.9019608 15.134902,18.2086275 C15.1545098,18.1333333 15.5584314,18.1521569 15.5584314,18.2086275 C15.5411765,18.7286275 15.4823529,21.1333333 15.4635294,21.6705882 C15.4635294,21.7286275 15.04,21.7286275 15.04,21.6517647 C15.04,21.3082353 14.945098,20.6541176 14.7701961,20.4596078 C14.5976471,20.2847059 14.5003922,20.1701961 13.134902,20.1701961 L11.5788235,20.1701961 L11.5788235,21.4611765 C11.5788235,23.9419608 11.692549,25.0784314 11.8658824,25.2501961 C12.0392157,25.4211765 12.6352941,25.4988235 13.7709804,25.4988235 C14.9631373,25.4988235 15.4062745,25.212549 15.7521569,24.8462745 C15.9811765,24.5960784 16.2133333,24.0368627 16.3866667,23.3082353 C16.4070588,23.2109804 16.8101961,23.2886275 16.8101961,23.3843137 C16.7121569,24.5960784 16.4996078,26.0007843 16.4823529,26.0384314 Z M22.7905882,26.5019608 C21.1929412,26.5019608 19.8870588,25.7890196 19.7137255,25.5396078 C19.6956863,25.4988235 19.5011765,23.4980392 19.5976471,22.5176471 C19.5976471,22.4235294 20.0219608,22.4031373 20.0392157,22.5176471 C20.08,23.2494118 20.4431373,24.2313725 20.7129412,24.6345098 C21.1921569,25.3647059 22.0211765,25.8478431 23.1945098,25.8478431 C24.5223529,25.8478431 25.2533333,24.9623529 25.2533333,23.5756863 C25.2533333,20.5396078 20.1929412,20.3843137 20.1929412,16.8831373 C20.1929412,15.0541176 21.6760784,13.4784314 23.694902,13.4784314 C25.1584314,13.4784314 25.3694118,13.9403922 26.1952941,13.8447059 C26.2729412,13.8258824 26.3113725,13.8627451 26.3113725,13.9011765 C26.3113725,14.5764706 26.3513725,15.7098039 26.3113725,16.7482353 C26.2933333,16.8062745 25.8878431,16.8062745 25.8682353,16.7098039 C25.8094118,15.9403922 25.6392157,15.2666667 25.2721569,14.8447059 C24.8501961,14.3819608 24.3113725,14.0941176 23.4831373,14.0941176 C22.4447059,14.0941176 21.6564706,14.9984314 21.6564706,16.1913725 C21.6564706,18.7898039 26.7913725,19.4219608 26.7913725,22.7498039 C26.7905882,25.1545098 24.7333333,26.5019608 22.7905882,26.5019608 Z M40.7976471,14.5168627 C40.6447059,14.6517647 40.4713725,15.1137255 40.4713725,18.6141176 L40.4713725,21.8462745 C40.4713725,24.1537255 38.6996078,26.3662745 35.4117647,26.3662745 C32.4109804,26.3662745 30.5819608,24.385098 30.5819608,21.8847059 L30.5819608,18.6141176 C30.5819608,15.1137255 30.4101961,14.5945098 30.1796078,14.4596078 C29.9286275,14.3239216 29.6031373,14.2666667 28.8517647,14.1898039 C28.7756863,14.1709804 28.7756863,13.7858824 28.8313725,13.7858824 C29.7356863,13.7858824 33.1223529,13.7858824 34.025098,13.7858824 C34.0831373,13.7858824 34.0831373,14.1701961 34.0070588,14.1898039 C33.2588235,14.2666667 32.852549,14.3239216 32.6031373,14.4596078 C32.3709804,14.5945098 32.1984314,15.1137255 32.1984314,18.6141176 L32.1984314,21.5388235 C32.1984314,23.6556863 33.5254902,25.4047059 36.0635294,25.4047059 C38.4305882,25.4047059 39.6047059,23.6164706 39.6047059,21.7498039 L39.6047059,18.614902 C39.6047059,15.1145098 39.4101961,14.652549 39.2580392,14.5176471 C39.0470588,14.3247059 38.6047059,14.267451 37.8352941,14.1905882 C37.7592157,14.1717647 37.7772549,13.7866667 37.8352941,13.7866667 C38.7403922,13.7866667 41.24,13.7866667 42.1435294,13.7866667 C42.2007843,13.7866667 42.2415686,14.1709804 42.1435294,14.1905882 C41.3937255,14.2666667 41.0078431,14.3239216 40.7976471,14.5168627 Z M47.2243137,26.5019608 C45.6266667,26.5019608 44.3192157,25.7890196 44.145098,25.5396078 C44.1262745,25.4988235 43.934902,23.4980392 44.0282353,22.5176471 C44.0282353,22.4235294 44.4533333,22.4031373 44.4705882,22.5176471 C44.5113725,23.2494118 44.8760784,24.2313725 45.1458824,24.6345098 C45.625098,25.3647059 46.452549,25.8478431 47.6266667,25.8478431 C48.9529412,25.8478431 49.6847059,24.9623529 49.6847059,23.5756863 C49.6847059,20.5396078 44.6243137,20.3843137 44.6243137,16.8831373 C44.6243137,15.0541176 46.1058824,13.4784314 48.1270588,13.4784314 C49.5882353,13.4784314 49.7992157,13.9403922 50.627451,13.8447059 C50.7058824,13.8258824 50.7427451,13.8627451 50.7427451,13.9011765 C50.7427451,14.5764706 50.7811765,15.7098039 50.7427451,16.7482353 C50.7239216,16.8062745 50.3207843,16.8062745 50.3011765,16.7098039 C50.2407843,15.9403922 50.0698039,15.2666667 49.7035294,14.8447059 C49.2807843,14.3819608 48.7419608,14.0941176 47.9137255,14.0941176 C46.8745098,14.0941176 46.0878431,14.9984314 46.0878431,16.1913725 C46.0878431,18.7898039 51.2219608,19.4219608 51.2219608,22.7498039 C51.2235294,25.1545098 49.1639216,26.5019608 47.2243137,26.5019608 Z M70.0737255,25.6156863 C70.0156863,25.7113725 68.7254902,26.5215686 66.2462745,26.5215686 C62.1482353,26.5215686 59.5498039,23.6556863 59.5498039,20.1701961 C59.5498039,16.8823529 61.9160784,13.5168627 66.2047059,13.5168627 C68.3788235,13.5168627 69.4580392,14.2478431 70.1482353,14.0941176 C70.2243137,14.0737255 70.2658824,14.1333333 70.2658824,14.1709804 C70.2823529,14.8431373 70.3419608,16.2290196 70.3231373,17.2666667 C70.3043137,17.3458824 69.8996078,17.3458824 69.8776471,17.2290196 C69.8015686,16.4384314 69.5537255,15.785098 69.0894118,15.2854902 C68.5105882,14.6894118 67.3003922,14.1890196 66.0133333,14.1890196 C62.6635294,14.1890196 61.3568627,16.8831373 61.3568627,19.614902 C61.3568627,22.7482353 63.3380392,25.7701961 66.2823529,25.7701961 C67.7058824,25.7701961 68.627451,25.3647059 69.2831373,24.5576471 C69.6870588,24.0588235 69.92,23.4807843 70.0894118,22.905098 C70.1082353,22.7882353 70.5121569,22.8854902 70.5121569,22.9623529 C70.4580392,23.7694118 70.1121569,25.5592157 70.0737255,25.6156863 Z M81.9019608,26.2501961 C81.8454902,26.2501961 81.8454902,25.8486275 81.9223529,25.8486275 C82.6713725,25.7701961 82.9992157,25.692549 83.2509804,25.5772549 C83.4784314,25.4415686 83.6501961,24.9223529 83.6501961,21.4047059 L83.6501961,20.2290196 L76.572549,20.2290196 L76.572549,21.4047059 C76.572549,24.9223529 76.7505882,25.4415686 76.9984314,25.5772549 C77.2266667,25.6917647 77.5537255,25.7701961 78.3043137,25.8486275 C78.3803922,25.8486275 78.3803922,26.2501961 78.3239216,26.2501961 C77.4164706,26.2501961 74.1301961,26.2501961 73.2258824,26.2501961 C73.1686275,26.2501961 73.1686275,25.8486275 73.2462745,25.8486275 C73.9952941,25.7701961 74.3427451,25.692549 74.5709804,25.5772549 C74.8039216,25.4415686 74.9756863,24.9223529 74.9756863,21.4047059 L74.9756863,18.6133333 C74.9756863,15.094902 74.8039216,14.5937255 74.5709804,14.4588235 C74.3427451,14.3231373 73.9952941,14.2658824 73.2462745,14.1890196 C73.1678431,14.1701961 73.1678431,13.785098 73.2258824,13.785098 C74.1301961,13.785098 77.4164706,13.785098 78.3239216,13.785098 C78.3796078,13.785098 78.3796078,14.1694118 78.3043137,14.1890196 C77.5537255,14.2658824 77.2266667,14.3231373 76.9984314,14.4588235 C76.7505882,14.5937255 76.572549,15.094902 76.572549,18.6133333 L76.572549,19.5168627 L83.6501961,19.5168627 L83.6501961,18.6133333 C83.6501961,15.094902 83.4776471,14.5937255 83.2509804,14.4588235 C82.9992157,14.3231373 82.6713725,14.2658824 81.9223529,14.1890196 C81.8447059,14.1701961 81.8447059,13.785098 81.9019608,13.785098 C82.8054902,13.785098 86.0964706,13.785098 86.9976471,13.785098 C87.0556863,13.785098 87.0556863,14.1694118 86.9796078,14.1890196 C86.2329412,14.2658824 85.9058824,14.3231373 85.654902,14.4588235 C85.425098,14.5937255 85.2509804,15.094902 85.2509804,18.6133333 L85.2509804,21.4047059 C85.2509804,24.9223529 85.4266667,25.4415686 85.654902,25.5772549 C85.9058824,25.6917647 86.2329412,25.7701961 86.9796078,25.8486275 C87.0564706,25.8486275 87.0564706,26.2501961 86.9976471,26.2501961 C86.0972549,26.2501961 82.8054902,26.2501961 81.9019608,26.2501961 Z M101.539608,26.2501961 C99.8698039,26.2501961 98.9654902,26.0580392 98.2156863,25.5584314 C97.2345098,24.8839216 96.1976471,23.574902 94.6368627,20.9403922 C93.6964706,20.9607843 93.3090196,20.9607843 92.5796078,20.9223529 L92.5796078,21.4235294 C92.5796078,24.9231373 92.7521569,25.4423529 92.985098,25.5780392 C93.2360784,25.7121569 93.8086275,25.7505882 94.6564706,25.8494118 C94.732549,25.867451 94.732549,26.2509804 94.6776471,26.2509804 C93.772549,26.2509804 90.1372549,26.2509804 89.2305882,26.2509804 C89.1733333,26.2509804 89.1545098,25.8682353 89.2494118,25.8494118 C90.0023529,25.7709804 90.3301961,25.7121569 90.5592157,25.5780392 C90.8062745,25.4423529 90.9631373,24.9231373 90.9631373,21.4235294 L90.9631373,18.6141176 C90.9631373,15.1137255 90.8070588,14.5945098 90.5592157,14.4596078 C90.3301961,14.3239216 90.0023529,14.2666667 89.2494118,14.1898039 C89.1545098,14.1709804 89.172549,13.7858824 89.2305882,13.7858824 C90.08,13.7858824 91.0611765,13.8243137 91.7694118,13.8243137 C92.4823529,13.8243137 93.2509804,13.7858824 94.1192157,13.7858824 C96.9819608,13.7858824 98.4243137,15.3827451 98.4243137,16.8447059 C98.4243137,18.3827451 97.465098,19.6141176 96.1168627,20.44 C98.8478431,24.5184314 100.386667,25.8266667 101.676863,25.8266667 C102.427451,25.8266667 102.887843,25.7113725 103.119216,25.5772549 C103.353725,25.4407843 103.523922,24.9223529 103.523922,21.4227451 L103.523922,18.612549 C103.523922,15.1121569 103.353725,14.5929412 103.119216,14.4580392 C102.888627,14.3223529 102.38902,14.265098 101.64,14.1882353 C101.559216,14.1694118 101.559216,13.7843137 101.621176,13.7843137 C102.523922,13.7843137 106.120784,13.7843137 107.026667,13.7843137 C107.100392,13.7843137 107.100392,14.1686275 107.008627,14.1882353 C106.256471,14.265098 105.774902,14.3223529 105.543529,14.4580392 C105.295686,14.5929412 105.138824,15.1121569 105.138824,18.612549 L105.138824,21.4227451 C105.138824,24.9223529 105.294902,25.4407843 105.543529,25.5772549 C105.774902,25.7113725 106.256471,25.7694118 107.008627,25.8478431 C107.100392,25.8658824 107.100392,26.2486275 107.026667,26.2486275 C106.12,26.2501961 102.467451,26.2501961 101.539608,26.2501961 Z M94.08,14.4384314 C93.4258824,14.4384314 92.8470588,14.5341176 92.7890196,14.6141176 C92.694902,14.7286275 92.5780392,15.8266667 92.5780392,18.6141176 C92.5780392,19.7678431 92.6141176,19.9803922 92.6941176,20.0572549 C92.8266667,20.1913725 93.3639216,20.2698039 94.2886275,20.2698039 C95.865098,20.2698039 96.5992157,19.0768627 96.5992157,17.5733333 C96.6,15.7286275 95.9270588,14.4384314 94.08,14.4384314 Z M112.483137,26.5019608 C110.887843,26.5019608 109.581176,25.7890196 109.40549,25.5396078 C109.388235,25.4988235 109.196863,23.4980392 109.291765,22.5176471 C109.291765,22.4235294 109.71451,22.4031373 109.734118,22.5176471 C109.77098,23.2494118 110.140392,24.2313725 110.406275,24.6345098 C110.886275,25.3647059 111.713725,25.8478431 112.889412,25.8478431 C114.214118,25.8478431 114.944314,24.9623529 114.944314,23.5756863 C114.944314,20.5396078 109.88549,20.3843137 109.88549,16.8831373 C109.88549,15.0541176 111.370196,13.4784314 113.38902,13.4784314 C114.85098,13.4784314 115.064314,13.9403922 115.889412,13.8447059 C115.966275,13.8258824 116.004706,13.8627451 116.004706,13.9011765 C116.004706,14.5764706 116.043137,15.7098039 116.004706,16.7482353 C115.985882,16.8062745 115.581961,16.8062745 115.562353,16.7098039 C115.501176,15.9403922 115.330196,15.2666667 114.964706,14.8447059 C114.539608,14.3819608 114.001569,14.0941176 113.174902,14.0941176 C112.136471,14.0941176 111.351373,14.9984314 111.351373,16.1913725 C111.351373,18.7898039 116.484706,19.4219608 116.484706,22.7498039 C116.48549,25.1545098 114.428235,26.5019608 112.483137,26.5019608 Z M129.260392,16.8823529 C129.240784,16.9772549 128.837647,16.9772549 128.837647,16.8447059 C128.837647,16.3631373 128.779608,15.4407843 128.453333,15.094902 C128.068235,14.6894118 127.279216,14.3615686 125.589804,14.3615686 C125.145098,14.3615686 124.916078,14.3615686 124.721569,14.4007843 C124.661176,14.5945098 124.643922,15.5176471 124.643922,16.7286275 L124.643922,21.4243137 C124.643922,24.9231373 124.817255,25.4423529 125.046275,25.5780392 C125.282353,25.7121569 125.762353,25.7701961 126.53098,25.8486275 C126.607059,25.8666667 126.607059,26.2501961 126.549804,26.2501961 C125.623529,26.2501961 122.049412,26.2501961 121.123922,26.2501961 C121.065882,26.2501961 121.065882,25.867451 121.161569,25.8486275 C121.911373,25.7701961 122.395294,25.7121569 122.625098,25.5780392 C122.875294,25.4423529 123.027451,24.9231373 123.027451,21.4243137 L123.027451,16.7286275 C123.027451,15.5176471 123.010196,14.5945098 122.951373,14.4007843 C122.760784,14.3615686 122.432941,14.3615686 121.991373,14.3615686 C120.178824,14.3615686 119.566275,14.5552941 119.12,15.094902 C118.814902,15.4603922 118.621176,16.1309804 118.487843,16.8823529 C118.469804,17.0172549 118.064314,16.9607843 118.064314,16.8447059 C118.178824,15.8439216 118.297255,14.3811765 118.35451,13.7262745 C118.35451,13.6690196 118.45098,13.6313725 118.584314,13.6501961 C119.256471,13.7647059 120.491765,13.8619608 123.836863,13.8619608 C128.433725,13.8619608 128.854902,13.7262745 129.203922,13.612549 C129.318431,13.5733333 129.412549,13.6305882 129.412549,13.6886275 C129.411765,14.4203922 129.377255,15.8643137 129.260392,16.8823529 Z M11.1945098,39.3882353 C9.27372549,39.3882353 7.84156863,37.9733333 7.84156863,36.2164706 C7.84156863,34.547451 9.27372549,32.8980392 11.3207843,32.8980392 C13.2439216,32.8980392 14.6760784,34.3129412 14.6760784,36.0705882 C14.6760784,37.7380392 13.2439216,39.3882353 11.1945098,39.3882353 Z M11.1231373,33.2980392 C9.34509804,33.2980392 8.83843137,34.747451 8.83843137,35.9435294 C8.83843137,37.52 9.78039216,38.9898039 11.3945098,38.9898039 C13.1694118,38.9898039 13.6792157,37.5380392 13.6792157,36.3435294 C13.68,34.7654902 12.734902,33.2980392 11.1231373,33.2980392 Z M20.1137255,34.2941176 C20.1137255,34.332549 19.8572549,34.332549 19.8572549,34.2580392 C19.8572549,34.0227451 19.8062745,33.8047059 19.6603922,33.6611765 C19.4972549,33.4768627 19.1333333,33.3333333 18.4266667,33.3333333 C18.0258824,33.3333333 17.665098,33.3498039 17.5576471,33.3686275 C17.5396078,33.4611765 17.5207843,33.8423529 17.5207843,34.4572549 L17.5207843,35.8886275 L18.227451,35.8886275 C19.1866667,35.8886275 19.3137255,35.7803922 19.3694118,35.4384314 C19.3866667,35.4 19.6219608,35.4196078 19.6219608,35.4384314 C19.6039216,35.7090196 19.5670588,36.6878431 19.5670588,36.9592157 C19.5670588,36.9756863 19.3137255,36.9756863 19.3137255,36.9419608 C19.3137255,36.7607843 19.2792157,36.5607843 19.1694118,36.4698039 C19.0792157,36.3780392 18.9341176,36.3239216 18.2078431,36.3239216 L17.52,36.3239216 L17.52,36.8509804 C17.52,38.627451 17.6094118,38.8431373 17.7356863,38.8980392 C17.8658824,38.9717647 18.1709804,39.025098 18.6070588,39.0611765 C18.6423529,39.0792157 18.6423529,39.2956863 18.6243137,39.2956863 C18.134902,39.2956863 16.1937255,39.2956863 15.7239216,39.2956863 C15.6878431,39.2956863 15.6878431,39.08 15.7403922,39.0611765 C16.1239216,39.025098 16.3043137,38.9717647 16.4305882,38.8980392 C16.5396078,38.8431373 16.6298039,38.6266667 16.6298039,36.8509804 L16.6298039,35.4376471 C16.6298039,33.6611765 16.5396078,33.387451 16.4305882,33.3333333 C16.3043137,33.2596078 16.1239216,33.2070588 15.7403922,33.1701961 C15.6886275,33.1521569 15.6886275,32.9882353 15.7239216,32.9882353 C16.5043137,33.0062745 17.7905882,33.0062745 18.4258824,33.0062745 C19.2792157,33.0062745 19.8564706,32.9882353 20.1662745,32.9694118 C20.2023529,32.9513725 20.2219608,32.9866667 20.2219608,33.0062745 C20.2031373,33.3333333 20.1670588,33.7694118 20.1137255,34.2941176 Z M28.6643137,39.1341176 C28.5905882,39.2431373 28.4807843,39.3152941 28.2282353,39.3152941 C27.6109804,39.3152941 26.8854902,39.28 26.052549,39.28 C25.4,39.28 24.9278431,39.28 24.2047059,39.2956863 C24.1866667,39.2956863 24.1866667,39.08 24.2219608,39.0603922 C24.6211765,39.025098 24.7827451,38.9717647 24.9090196,38.8980392 C25.0376471,38.8423529 25.1113725,38.6258824 25.1113725,36.8509804 L25.1113725,35.4384314 C25.1113725,33.6611765 25.0376471,33.4423529 24.9090196,33.387451 C24.7835294,33.3145098 24.6203922,33.2611765 24.2219608,33.2078431 C24.1866667,33.2078431 24.1866667,32.9890196 24.2047059,32.9890196 C24.6760784,32.9890196 26.4517647,32.9890196 26.9223529,32.9890196 C26.9411765,32.9890196 26.9411765,33.2078431 26.9043137,33.2078431 C26.5058824,33.2603922 26.3419608,33.3145098 26.2164706,33.387451 C26.0894118,33.4423529 26.0141176,33.6619608 26.0141176,35.4384314 L26.0141176,36.8509804 C26.0141176,38.0282353 26.1066667,38.5717647 26.2337255,38.7184314 C26.3419608,38.8258824 26.4878431,38.8980392 27.067451,38.8980392 C27.6282353,38.8980392 28.0086275,38.7521569 28.2462745,38.4831373 C28.4627451,38.227451 28.6266667,37.812549 28.6980392,37.5027451 C28.7160784,37.4494118 28.9529412,37.4839216 28.9529412,37.5388235 C28.8996078,38.0470588 28.7537255,38.9898039 28.6643137,39.1341176 Z M33.4501961,39.2964706 C33.4321569,39.2964706 33.4141176,39.0807843 33.4501961,39.0619608 C33.7584314,39.0454902 33.9568627,38.972549 33.9568627,38.8258824 C33.9568627,38.6643137 33.8305882,38.3364706 33.2501961,36.9592157 C33.2698039,36.9592157 31.2745098,36.9592157 31.2564706,36.9592157 C30.7843137,38.1921569 30.6784314,38.5560784 30.6784314,38.772549 C30.6784314,38.9364706 30.8227451,39.0266667 31.2384314,39.0619608 C31.292549,39.08 31.2737255,39.2964706 31.2384314,39.2964706 C30.9482353,39.2964706 29.6070588,39.2964706 29.1380392,39.2964706 C29.1011765,39.2964706 29.1011765,39.0807843 29.1380392,39.0619608 C29.4447059,39.0454902 29.6258824,38.9905882 29.7709804,38.8807843 C29.9717647,38.7356863 30.2054902,38.3741176 30.7678431,36.8517647 L31.3113725,35.4384314 C31.6203922,34.6211765 31.9458824,33.7694118 32.1992157,33.0078431 C32.2188235,32.9356863 32.6164706,32.9356863 32.652549,33.0078431 C32.9435294,33.8588235 33.212549,34.5482353 33.5592157,35.4384314 L34.1215686,36.8517647 C34.8847059,38.6823529 34.9913725,38.7921569 35.1733333,38.8988235 C35.3552941,39.0070588 35.4972549,39.0462745 35.7898039,39.0619608 C35.825098,39.08 35.8070588,39.2964706 35.7898039,39.2964706 C35.3168627,39.2964706 33.9184314,39.2964706 33.4501961,39.2964706 Z M32.2533333,34.2941176 L31.4384314,36.505098 L33.0870588,36.505098 L32.2533333,34.2941176 Z M41.2776471,34.4023529 C41.2776471,34.4196078 41.0423529,34.4196078 41.0423529,34.3858824 C41.0423529,34.1309804 40.987451,33.8776471 40.8611765,33.7317647 C40.6619608,33.5521569 40.3898039,33.4062745 39.3027451,33.4062745 C39.0854902,33.4062745 38.9576471,33.4243137 38.867451,33.4243137 C38.8313725,33.5341176 38.8133333,33.9137255 38.8133333,34.5294118 L38.8133333,36.8501961 C38.8133333,38.6258824 38.9035294,38.8415686 39.0313725,38.8972549 C39.1560784,38.9701961 39.4101961,39.0243137 39.8109804,39.0596078 C39.8478431,39.0776471 39.8478431,39.2941176 39.8109804,39.2941176 C39.3411765,39.2941176 37.4172549,39.2941176 36.9466667,39.2941176 C36.9105882,39.2941176 36.9105882,39.0784314 36.9466667,39.0596078 C37.3466667,39.0243137 37.6,38.9701961 37.7262745,38.8972549 C37.852549,38.8415686 37.9262745,38.625098 37.9262745,36.8501961 L37.9262745,34.5294118 C37.9262745,33.9137255 37.9262745,33.5333333 37.8894118,33.4243137 C37.7960784,33.4243137 37.6180392,33.4062745 37.3992157,33.4062745 C36.3662745,33.4062745 36.0760784,33.5145098 35.8392157,33.7317647 C35.6760784,33.8776471 35.5866667,34.1686275 35.532549,34.4023529 C35.532549,34.44 35.2964706,34.4023529 35.2964706,34.3647059 C35.3529412,33.8760784 35.4047059,33.2972549 35.4431373,32.9513725 C35.4431373,32.9341176 35.4603922,32.9145098 35.4972549,32.9145098 C35.8588235,32.9694118 36.6407843,33.0227451 38.3796078,33.0227451 C40.7709804,33.0227451 41.134902,32.9701961 41.3176471,32.8972549 C41.3505882,32.8972549 41.3701961,32.9145098 41.3701961,32.9341176 C41.3686275,33.3145098 41.3498039,33.8768627 41.2776471,34.4023529 Z M48.0031373,34.4023529 C48.0031373,34.4196078 47.7670588,34.4196078 47.7670588,34.3858824 C47.7670588,34.1309804 47.7113725,33.8776471 47.5835294,33.7317647 C47.3866667,33.5521569 47.1152941,33.4062745 46.025098,33.4062745 C45.8086275,33.4062745 45.6823529,33.4243137 45.5898039,33.4243137 C45.5560784,33.5341176 45.5356863,33.9137255 45.5356863,34.5294118 L45.5356863,36.8501961 C45.5356863,38.6258824 45.625098,38.8415686 45.7521569,38.8972549 C45.8792157,38.9701961 46.1356863,39.0243137 46.5341176,39.0596078 C46.5686275,39.0776471 46.5686275,39.2941176 46.5341176,39.2941176 C46.0603922,39.2941176 44.1403922,39.2941176 43.6698039,39.2941176 C43.6313725,39.2941176 43.6313725,39.0784314 43.6698039,39.0596078 C44.067451,39.0243137 44.3223529,38.9701961 44.4494118,38.8972549 C44.5756863,38.8415686 44.6470588,38.625098 44.6470588,36.8501961 L44.6470588,34.5294118 C44.6470588,33.9137255 44.6470588,33.5333333 44.612549,33.4243137 C44.5207843,33.4243137 44.3388235,33.4062745 44.1231373,33.4062745 C43.0901961,33.4062745 42.7992157,33.5145098 42.5639216,33.7317647 C42.4007843,33.8776471 42.3105882,34.1686275 42.254902,34.4023529 C42.254902,34.44 42.0211765,34.4023529 42.0211765,34.3647059 C42.0745098,33.8760784 42.1294118,33.2972549 42.1647059,32.9513725 C42.1647059,32.9341176 42.1843137,32.9145098 42.2188235,32.9145098 C42.5811765,32.9694118 43.3607843,33.0227451 45.1011765,33.0227451 C47.494902,33.0227451 47.8580392,32.9701961 48.0384314,32.8972549 C48.0752941,32.8972549 48.092549,32.9145098 48.092549,32.9341176 C48.0933333,33.3145098 48.0752941,33.8768627 48.0031373,34.4023529 Z M53.3309804,39.1341176 C53.2603922,39.2431373 53.2031373,39.3152941 52.9498039,39.3152941 C52.3333333,39.3152941 51.6086275,39.28 50.774902,39.28 C50.1231373,39.28 49.7239216,39.28 49.0180392,39.2956863 C48.9803922,39.2956863 48.9803922,39.08 49.0180392,39.0603922 C49.4156863,39.025098 49.5960784,38.9717647 49.7043137,38.8980392 C49.8313725,38.8423529 49.9223529,38.6258824 49.9223529,36.8509804 L49.9223529,35.4384314 C49.9223529,33.6611765 49.8313725,33.4423529 49.7043137,33.387451 C49.5952941,33.3145098 49.414902,33.2611765 49.0180392,33.2078431 C48.9803922,33.2078431 48.9803922,32.9890196 49.0180392,32.9890196 C49.7976471,33.0070588 51.027451,33.0070588 51.6823529,33.0070588 C52.5168627,33.0070588 52.987451,32.9890196 53.2776471,32.9701961 C53.3317647,32.9521569 53.3505882,32.987451 53.3505882,33.0070588 C53.3121569,33.3333333 53.2933333,33.8047059 53.2392157,34.3129412 C53.2227451,34.3654902 52.9866667,34.3466667 52.9866667,34.2941176 C52.9866667,34.0392157 52.932549,33.8047059 52.7882353,33.6423529 C52.625098,33.4768627 52.3333333,33.387451 51.6282353,33.387451 C51.2298039,33.387451 50.9576471,33.4062745 50.8486275,33.4062745 C50.8109804,33.5145098 50.8109804,33.8423529 50.8109804,34.4564706 L50.8109804,35.814902 L51.5545098,35.814902 C52.5168627,35.814902 52.6415686,35.5992157 52.6964706,35.254902 C52.7145098,35.2180392 52.9505882,35.2180392 52.9505882,35.254902 C52.9341176,35.5270588 52.8964706,36.6862745 52.8964706,36.9403922 C52.8964706,36.9756863 52.6423529,36.9756863 52.6423529,36.9403922 C52.6423529,36.76 52.6070588,36.5043137 52.4980392,36.4133333 C52.4070588,36.3427451 52.2603922,36.2345098 51.5380392,36.2345098 L50.8117647,36.2345098 L50.8117647,36.8494118 C50.8117647,38.0266667 50.9027451,38.5701961 51.027451,38.7168627 C51.1568627,38.8243137 51.2839216,38.8964706 51.8815686,38.8964706 C52.4980392,38.8964706 52.8415686,38.7505882 53.0235294,38.5537255 C53.1694118,38.4062745 53.2784314,38.2070588 53.3513725,37.8815686 C53.3670588,37.8282353 53.5482353,37.8815686 53.5309804,37.9184314 C53.4933333,38.427451 53.4039216,38.9898039 53.3309804,39.1341176 Z M61.1090196,39.28 C60.4909804,39.28 59.9827451,39.2070588 59.6023529,38.9364706 C59.0776471,38.6109804 58.534902,37.9741176 57.7356863,36.652549 C57.2462745,36.6690196 57.0823529,36.652549 56.7043137,36.6329412 L56.7043137,36.8509804 C56.7043137,38.6266667 56.7968627,38.8439216 56.9215686,38.8980392 C57.0470588,38.9717647 57.3552941,39.025098 57.7890196,39.0603922 C57.825098,39.0792157 57.825098,39.2956863 57.8094118,39.2956863 C57.3356863,39.2956863 55.3811765,39.2956863 54.907451,39.2956863 C54.8713725,39.2956863 54.8713725,39.08 54.9262745,39.0603922 C55.3066667,39.025098 55.4886275,38.9717647 55.6164706,38.8980392 C55.7247059,38.8423529 55.8133333,38.6258824 55.8133333,36.8509804 L55.8133333,35.4384314 C55.8133333,33.6611765 55.7239216,33.4423529 55.6164706,33.387451 C55.4886275,33.3145098 55.3058824,33.2611765 54.9262745,33.2078431 C54.8713725,33.2078431 54.8713725,32.9890196 54.907451,32.9890196 C55.3607843,32.9890196 55.8862745,33.0070588 56.267451,33.0070588 C56.6290196,33.0070588 57.027451,32.9890196 57.4815686,32.9890196 C58.9866667,32.9890196 59.8384314,33.7882353 59.8384314,34.5835294 C59.8384314,35.3639216 59.2580392,35.9968627 58.5513725,36.4141176 C59.8933333,38.3560784 60.614902,39.0070588 61.3952941,39.0070588 C61.4854902,39.0070588 61.6156863,39.0070588 61.6862745,39.0070588 C61.7231373,38.9905882 61.7592157,39.2258824 61.7435294,39.2258824 C61.5247059,39.2619608 61.3435294,39.28 61.1090196,39.28 Z M57.4635294,33.3498039 C57.12,33.3498039 56.9003922,33.4062745 56.8658824,33.4760784 C56.7968627,33.5513725 56.7043137,34.1498039 56.7043137,35.4384314 C56.7043137,36.0156863 56.7396078,36.0894118 56.7968627,36.1427451 C56.9019608,36.2352941 57.1019608,36.3043137 57.574902,36.3043137 C58.3168627,36.3043137 58.825098,35.652549 58.825098,34.9090196 C58.8235294,34.0384314 58.4243137,33.3498039 57.4635294,33.3498039 Z M64.7529412,36.2870588 C64.7113725,36.3435294 64.6415686,36.3623529 64.5145098,36.3623529 L63.2988235,36.3788235 C62.1388235,36.3788235 61.9035294,36.5427451 61.7952941,36.7960784 C61.7764706,36.8329412 61.56,36.7803922 61.56,36.7419608 C61.5756863,36.5254902 61.6141176,36.0713725 61.6478431,35.8721569 L63.1364706,35.8556863 C64.2972549,35.8556863 64.4784314,35.6745098 64.6243137,35.44 C64.6407843,35.4 64.8407843,35.4564706 64.8407843,35.4745098 C64.8219608,35.6886275 64.787451,36.2352941 64.7529412,36.2870588 Z M71.6368627,38.3364706 C70.9498039,39.0062745 70.187451,39.2964706 68.9184314,39.2964706 C68.465098,39.2964706 67.7584314,39.28 67.3803922,39.28 C67.014902,39.28 66.4721569,39.2964706 66.0360784,39.2964706 C65.9968627,39.2964706 65.9968627,39.0807843 66.0360784,39.0619608 C66.4329412,39.0258824 66.5992157,38.972549 66.7262745,38.8988235 C66.852549,38.8439216 66.9419608,38.627451 66.9419608,36.8517647 L66.9419608,35.4384314 C66.9419608,33.6619608 66.852549,33.4423529 66.7262745,33.3882353 C66.5992157,33.3160784 66.4337255,33.2611765 66.0360784,33.2086275 C65.9968627,33.2086275 65.9968627,32.9898039 66.0360784,32.9898039 C66.4721569,32.9898039 67.0156863,33.0086275 67.3803922,33.0086275 C67.7584314,33.0086275 68.6839216,32.9898039 69.1160784,32.9898039 C71.1466667,32.9898039 72.6690196,34.3145098 72.6690196,36.0721569 C72.6690196,36.9043137 72.252549,37.7380392 71.6368627,38.3364706 Z M68.8266667,33.3498039 C68.2141176,33.3498039 68.0494118,33.4423529 67.974902,33.5341176 C67.9207843,33.6039216 67.8313725,34.0580392 67.8313725,35.3984314 L67.8313725,36.8509804 C67.8313725,38.027451 67.92,38.5356863 68.0486275,38.6807843 C68.2282353,38.8619608 68.3717647,38.9160784 68.8996078,38.9160784 C70.8572549,38.9160784 71.6941176,38.065098 71.6941176,36.2345098 C71.6941176,34.747451 70.7317647,33.3498039 68.8266667,33.3498039 Z M77.1317647,39.2964706 C77.1137255,39.2964706 77.0933333,39.0807843 77.1317647,39.0619608 C77.4384314,39.0454902 77.6376471,38.972549 77.6376471,38.8258824 C77.6376471,38.6643137 77.5145098,38.3364706 76.9333333,36.9592157 C76.9513725,36.9592157 74.9592157,36.9592157 74.9364706,36.9592157 C74.4698039,38.1921569 74.3584314,38.5560784 74.3584314,38.772549 C74.3584314,38.9364706 74.505098,39.0266667 74.9207843,39.0619608 C74.9756863,39.08 74.96,39.2964706 74.9207843,39.2964706 C74.6321569,39.2964706 73.2909804,39.2964706 72.8164706,39.2964706 C72.7811765,39.2964706 72.7811765,39.0807843 72.8164706,39.0619608 C73.1254902,39.0454902 73.3090196,38.9905882 73.4533333,38.8807843 C73.6509804,38.7356863 73.8886275,38.3741176 74.4501961,36.8517647 L74.9945098,35.4384314 C75.3019608,34.6211765 75.6266667,33.7694118 75.8839216,33.0078431 C75.8996078,32.9356863 76.2964706,32.9356863 76.334902,33.0078431 C76.6235294,33.8588235 76.8972549,34.5482353 77.2415686,35.4384314 L77.8023529,36.8517647 C78.5662745,38.6823529 78.6737255,38.7921569 78.8517647,38.8988235 C79.0321569,39.0070588 79.1788235,39.0462745 79.467451,39.0619608 C79.5066667,39.08 79.4862745,39.2964706 79.467451,39.2964706 C78.9992157,39.2964706 77.6054902,39.2964706 77.1317647,39.2964706 Z M75.9333333,34.2941176 L75.1207843,36.505098 L76.7701961,36.505098 L75.9333333,34.2941176 Z M84.5270588,33.3145098 C84.2729412,33.4423529 84.0745098,33.7145098 83.5654902,34.5309804 L83.0203922,35.4 C82.7858824,35.7623529 82.5505882,36.1623529 82.3309804,36.5247059 L82.3309804,36.8509804 C82.3309804,38.6266667 82.4196078,38.8439216 82.5317647,38.8980392 C82.6572549,38.9717647 82.9121569,39.025098 83.3137255,39.0603922 C83.347451,39.0792157 83.347451,39.2956863 83.3137255,39.2956863 C82.84,39.2956863 80.9168627,39.2956863 80.4462745,39.2956863 C80.4117647,39.2956863 80.4117647,39.08 80.4462745,39.0603922 C80.8439216,39.025098 81.0980392,38.9717647 81.225098,38.8980392 C81.3513725,38.8423529 81.4258824,38.6258824 81.4258824,36.8509804 L81.4258824,36.56 C81.2062745,36.1788235 80.9898039,35.8156863 80.7160784,35.4 L80.1584314,34.5309804 C79.5223529,33.5521569 79.3592157,33.3694118 79.1780392,33.3145098 C79.0133333,33.2415686 78.8156863,33.225098 78.5231373,33.2078431 C78.4878431,33.2078431 78.4878431,32.9709804 78.5231373,32.9709804 C78.9968627,32.9709804 80.4658824,32.9709804 80.9364706,32.9709804 C80.9709804,32.9709804 80.9898039,33.2078431 80.9364706,33.2078431 C80.7160784,33.2243137 80.6117647,33.2415686 80.52,33.2988235 C80.4462745,33.3341176 80.4847059,33.4768627 81.1176471,34.4407843 L82.0956863,36.052549 L83.1129412,34.4572549 C83.6376471,33.6235294 83.7262745,33.4078431 83.5819608,33.3160784 C83.4956863,33.2611765 83.3647059,33.2258824 83.0917647,33.2078431 C83.0556863,33.2078431 83.0760784,32.9709804 83.0917647,32.9709804 C83.4031373,32.9709804 84.7435294,32.9709804 85.214902,32.9709804 C85.252549,32.9709804 85.252549,33.2078431 85.214902,33.2078431 C84.9254902,33.2243137 84.6713725,33.2603922 84.5270588,33.3145098 Z M90.1945098,39.3882353 C89.2517647,39.3882353 88.6,38.9160784 88.5811765,38.8086275 C88.507451,38.4831373 88.507451,37.92 88.5623529,37.412549 C88.5623529,37.3764706 88.7968627,37.3576471 88.7968627,37.412549 C88.8360784,37.7929412 88.9811765,38.1356863 89.1247059,38.3560784 C89.4133333,38.7356863 89.7945098,39.0070588 90.3780392,39.0070588 C91.1019608,39.0070588 91.4643137,38.5356863 91.4643137,37.8658824 C91.4643137,36.4329412 88.7976471,36.1788235 88.7976471,34.5670588 C88.7976471,33.5694118 89.7419608,32.8611765 90.667451,32.8611765 C91.4305882,32.8611765 91.627451,33.1333333 91.9898039,33.0423529 C92.0282353,33.025098 92.0635294,33.0596078 92.0635294,33.0792157 C92.0439216,33.4243137 92.0635294,33.9137255 92.0439216,34.44 C92.0439216,34.4737255 91.8094118,34.4737255 91.7937255,34.44 C91.774902,34.1301961 91.6282353,33.7482353 91.4658824,33.587451 C91.2486275,33.3678431 90.8839216,33.2415686 90.5756863,33.2415686 C90.0172549,33.2415686 89.5976471,33.6211765 89.5976471,34.2211765 C89.5976471,35.4384314 92.3521569,35.907451 92.3521569,37.5035294 C92.3513725,38.7176471 91.2094118,39.3882353 90.1945098,39.3882353 Z M96.9560784,39.2964706 C96.9380392,39.2964706 96.9176471,39.0807843 96.9560784,39.0619608 C97.2643137,39.0454902 97.4643137,38.972549 97.4643137,38.8258824 C97.4643137,38.6643137 97.3380392,38.3364706 96.7552941,36.9592157 C96.7717647,36.9592157 94.7788235,36.9592157 94.7631373,36.9592157 C94.2894118,38.1921569 94.1827451,38.5560784 94.1827451,38.772549 C94.1827451,38.9364706 94.3278431,39.0266667 94.7435294,39.0619608 C94.7976471,39.08 94.7796078,39.2964706 94.7435294,39.2964706 C94.454902,39.2964706 93.1113725,39.2964706 92.6431373,39.2964706 C92.6039216,39.2964706 92.6039216,39.0807843 92.6431373,39.0619608 C92.9498039,39.0454902 93.1294118,38.9905882 93.2760784,38.8807843 C93.4768627,38.7356863 93.7105882,38.3741176 94.2737255,36.8517647 L94.8180392,35.4384314 C95.1223529,34.6211765 95.4501961,33.7694118 95.7043137,33.0078431 C95.7231373,32.9356863 96.1192157,32.9356863 96.1584314,33.0078431 C96.4470588,33.8588235 96.7207843,34.5482353 97.0635294,35.4384314 L97.6235294,36.8517647 C98.3858824,38.6823529 98.4941176,38.7921569 98.6792157,38.8988235 C98.8588235,39.0070588 99.0070588,39.0462745 99.2909804,39.0619608 C99.3301961,39.08 99.3098039,39.2964706 99.2909804,39.2964706 C98.8211765,39.2964706 97.4243137,39.2964706 96.9560784,39.2964706 Z M95.7584314,34.2941176 L94.945098,36.505098 L96.5952941,36.505098 L95.7584314,34.2941176 Z M99.4384314,39.2964706 C99.4164706,39.2964706 99.4164706,39.0807843 99.4541176,39.0619608 C99.854902,39.0258824 100.105882,38.972549 100.218039,38.8988235 C100.345098,38.8439216 100.433725,38.627451 100.433725,36.8517647 L100.433725,35.4384314 C100.433725,33.6619608 100.345098,33.4423529 100.218039,33.3882353 C100.105882,33.3160784 99.854902,33.2611765 99.4541176,33.2086275 C99.4156863,33.2086275 99.4156863,32.9898039 99.4384314,32.9898039 C99.9058824,32.9898039 101.846275,32.9898039 102.318431,32.9898039 C102.337255,32.9898039 102.337255,33.2086275 102.300392,33.2086275 C101.902745,33.2611765 101.649412,33.3168627 101.539608,33.3882353 C101.414118,33.4423529 101.32,33.6627451 101.32,35.4384314 L101.32,36.8517647 C101.32,38.6282353 101.414118,38.8439216 101.539608,38.8988235 C101.649412,38.972549 101.902745,39.0258824 102.300392,39.0619608 C102.338824,39.08 102.338824,39.2964706 102.318431,39.2964706 C101.846275,39.2964706 99.9058824,39.2964706 99.4384314,39.2964706 Z M109.895686,33.4062745 C109.807059,33.4760784 109.698824,33.6611765 109.715294,35.4384314 L109.715294,36.8509804 C109.715294,37.6666667 109.715294,38.5364706 109.767843,39.2964706 C109.767843,39.3537255 109.463529,39.3709804 109.410196,39.3152941 L104.603137,34.4564706 L104.638431,36.8509804 C104.657255,38.4831373 104.785098,38.7905882 104.93098,38.8980392 C105.020392,38.9717647 105.367059,39.0603922 105.635294,39.0603922 C105.69098,39.0603922 105.67451,39.2956863 105.635294,39.2956863 C105.127843,39.2956863 103.678431,39.2956863 103.207059,39.2956863 C103.172549,39.2956863 103.172549,39.08 103.207059,39.0603922 C103.60549,39.025098 103.840784,38.9717647 103.950588,38.8807843 C104.041569,38.8094118 104.14902,38.6266667 104.112941,36.8509804 L104.094902,35.4384314 C104.094902,34.6203922 104.094902,33.7490196 104.041569,32.9882353 C104.041569,32.934902 104.386667,32.9168627 104.407843,32.9709804 L109.226667,37.8658824 L109.191373,35.4384314 C109.171765,33.6611765 109.028235,33.4611765 108.92,33.387451 C108.790588,33.2988235 108.556863,33.2415686 108.138824,33.2078431 C108.08549,33.2078431 108.103529,32.9890196 108.138824,32.9890196 C108.609412,32.9890196 110.118431,32.9890196 110.585882,32.9890196 C110.625098,32.9890196 110.643922,33.2078431 110.585882,33.2078431 C110.187451,33.2603922 110.007059,33.3145098 109.895686,33.4062745 Z M117.113725,34.4023529 C117.113725,34.4196078 116.876078,34.4196078 116.876078,34.3858824 C116.876078,34.1309804 116.821961,33.8776471 116.694902,33.7317647 C116.494902,33.5521569 116.221176,33.4062745 115.134902,33.4062745 C114.92,33.4062745 114.792157,33.4243137 114.698824,33.4243137 C114.664314,33.5341176 114.644706,33.9137255 114.644706,34.5294118 L114.644706,36.8501961 C114.644706,38.6258824 114.737255,38.8415686 114.863529,38.8972549 C114.991373,38.9701961 115.24549,39.0243137 115.643137,39.0596078 C115.682353,39.0776471 115.682353,39.2941176 115.643137,39.2941176 C115.172549,39.2941176 113.252549,39.2941176 112.779608,39.2941176 C112.741176,39.2941176 112.741176,39.0784314 112.779608,39.0596078 C113.176471,39.0243137 113.430588,38.9701961 113.557647,38.8972549 C113.684706,38.8415686 113.758431,38.625098 113.758431,36.8501961 L113.758431,34.5294118 C113.758431,33.9137255 113.758431,33.5333333 113.720784,33.4243137 C113.631373,33.4243137 113.449412,33.4062745 113.231373,33.4062745 C112.198431,33.4062745 111.908235,33.5145098 111.672941,33.7317647 C111.511373,33.8776471 111.418824,34.1686275 111.364706,34.4023529 C111.364706,34.44 111.130196,34.4023529 111.130196,34.3647059 C111.184314,33.8760784 111.238431,33.2972549 111.276863,32.9513725 C111.276863,32.9341176 111.291765,32.9145098 111.329412,32.9145098 C111.693333,32.9694118 112.471373,33.0227451 114.213333,33.0227451 C116.603137,33.0227451 116.969412,32.9701961 117.146667,32.8972549 C117.186667,32.8972549 117.200784,32.9145098 117.200784,32.9341176 C117.200784,33.3145098 117.184314,33.8768627 117.113725,34.4023529 Z M119.466667,39.3882353 C118.522353,39.3882353 117.869804,38.9160784 117.85098,38.8086275 C117.777255,38.4831373 117.777255,37.92 117.832941,37.412549 C117.832941,37.3764706 118.071373,37.3576471 118.071373,37.412549 C118.105882,37.7929412 118.251765,38.1356863 118.398431,38.3560784 C118.687843,38.7356863 119.065882,39.0070588 119.647843,39.0070588 C120.375686,39.0070588 120.736471,38.5356863 120.736471,37.8658824 C120.736471,36.4329412 118.072157,36.1788235 118.072157,34.5670588 C118.072157,33.5694118 119.015686,32.8611765 119.941176,32.8611765 C120.700392,32.8611765 120.901176,33.1333333 121.262745,33.0423529 C121.298824,33.025098 121.336471,33.0596078 121.336471,33.0792157 C121.313725,33.4243137 121.336471,33.9137255 121.313725,34.44 C121.313725,34.4737255 121.082353,34.4737255 121.063529,34.44 C121.04549,34.1301961 120.901961,33.7482353 120.738039,33.587451 C120.516078,33.3678431 120.158431,33.2415686 119.850196,33.2415686 C119.287843,33.2415686 118.869804,33.6211765 118.869804,34.2211765 C118.869804,35.4384314 121.623529,35.907451 121.623529,37.5035294 C121.621176,38.7176471 120.480784,39.3882353 119.466667,39.3882353 Z" id="Combined-Shape"></path>
                </g>
            </g>
        </g>
    </g>
</svg>
